<?xml version="1.0" encoding="utf-8"?>
<!-- Generator: Adobe Illustrator 21.0.2, SVG Export Plug-In . SVG Version: 6.00 Build 0)  -->
<svg version="1.1" id="Layer_1" xmlns="http://www.w3.org/2000/svg" xmlns:xlink="http://www.w3.org/1999/xlink" x="0px" y="0px"
	 viewBox="0 0 171 63" style="enable-background:new 0 0 171 63;" xml:space="preserve">
<style type="text/css">
	.st0{clip-path:url(#SVGID_2_);fill:#FFFFFF;}
	.st1{clip-path:url(#SVGID_4_);fill:#1085C3;}
	.st2{clip-path:url(#SVGID_6_);fill:#1085C3;}
	.st3{clip-path:url(#SVGID_8_);fill:#0F5597;}
	.st4{clip-path:url(#SVGID_10_);fill:#FFFFFF;}
</style>
<g>
	<defs>
		<path id="SVGID_1_" d="M165.1,31.9c-0.4-1.3-1.2-2.3-2.3-3.1c-1.2-0.8-2.5-1.1-3.9-1.1c-1.6,0-3.1,0.4-4.3,1.3
			c-0.8,0.5-1.5,1.5-2.1,2.9H165.1z M171,35.3l0,1.1h-18.8c0.3,1.6,1,2.9,2.2,3.8c1.2,0.9,2.7,1.4,4.5,1.4c2.2,0,4.1-0.7,5.6-2.2
			l4.9,2.2c-2.4,3.3-5.9,4.9-10.5,4.9c-3.6,0-6.6-1.1-8.9-3.2c-2.3-2.2-3.5-5-3.5-8.4c0-3.4,1.1-6.2,3.4-8.5
			c2.3-2.3,5.2-3.4,8.7-3.4c3.7,0,6.7,1.1,9,3.4C169.9,28.7,171.1,31.6,171,35.3z M137.5,34.5c0-1.8-0.6-3.3-1.7-4.5
			c-1.2-1.2-2.7-1.8-4.6-1.8c-1.9,0-3.4,0.6-4.6,1.8c-1.2,1.2-1.8,2.7-1.8,4.5c0,1.8,0.6,3.4,1.8,4.6c1.2,1.2,2.8,1.8,4.7,1.8
			c1.9,0,3.4-0.6,4.6-1.8C136.9,37.8,137.5,36.3,137.5,34.5z M143,42.7c0,3.8-0.8,6.5-2.4,8.3c-2.1,2.4-5.4,3.6-9.6,3.6
			c-4.3,0-7.5-1.1-9.7-3.2c-1.1-1.1-1.9-2.4-2.4-3.9h6.5c1.2,1.3,3,1.9,5.4,1.9c3,0,4.9-0.8,5.8-2.5c0.4-0.7,0.6-2,0.6-3.8
			c-1.9,1.8-4.3,2.8-7.1,2.8c-3.3,0-6-1.1-8.1-3.4c-2-2.2-3.1-4.9-3.1-8c0-3.5,1.1-6.4,3.4-8.5c2.1-1.9,4.5-2.9,7.4-2.9
			c2.7,0,5.2,1,7.4,3v-2.9h5.8V42.7z M115.3,33c0,3.9-0.3,6.6-1,8c-1.6,3.6-4.7,5.4-9.3,5.4c-5,0-8.2-2.1-9.5-6.2
			c-0.5-1.4-0.7-3.8-0.7-7.4V15l5.9,4.6v14.7c0,1.6,0.1,2.7,0.2,3.4c0.3,1.3,0.8,2.3,1.7,2.9c0.7,0.5,1.5,0.7,2.4,0.7
			c2,0,3.3-0.9,4-2.6c0.2-0.6,0.4-2,0.4-4.1V23.1l5.9,3.3V33z M44.5,34.7c0-1.9-0.6-3.4-1.8-4.7c-1.2-1.2-2.7-1.9-4.7-1.9
			c-1.9,0-3.4,0.6-4.6,1.9c-1.1,1.2-1.7,2.8-1.7,4.6c0,1.8,0.6,3.4,1.7,4.6c1.2,1.3,2.7,2,4.6,2c1.9,0,3.5-0.6,4.7-1.9
			C44,38.1,44.5,36.6,44.5,34.7z M50.8,45.9h-5.8v-2.4c-2.2,2-4.6,2.9-7.2,2.9c-3.2,0-5.9-1.2-8.1-3.6c-2-2.3-3.1-5-3.1-8.1
			c0-3.2,1-5.9,2.9-8.2c2.1-2.4,4.8-3.6,8-3.6c2.8,0,5.3,1,7.4,3v-2.5l5.8-2.6V45.9z M24,28.1l-4.9,2.6c-1.6-1.6-3.6-2.4-5.9-2.4
			c-2.1,0-3.9,0.6-5.2,1.8c-1.4,1.2-2.1,2.9-2.1,4.9c0,2,0.7,3.5,2,4.7c1.3,1.2,3,1.7,5.1,1.7c2.6,0,4.7-0.9,6.1-2.6l4.6,3
			c-2.5,3.1-6,4.7-10.6,4.7c-3.7,0-6.8-1-9.3-3.1c-2.6-2.2-3.9-5-3.9-8.5c0-2.2,0.6-4.2,1.7-6c1.1-1.8,2.7-3.2,4.7-4.3
			c2-1,4.3-1.6,6.8-1.6C17.9,23,21.5,24.7,24,28.1z"/>
	</defs>
	<clipPath id="SVGID_2_">
		<use xlink:href="#SVGID_1_"  style="overflow:visible;"/>
	</clipPath>
	<rect x="-5" y="10" class="st0" width="181" height="49.6"/>
</g>
<g>
	<defs>
		<polygon id="SVGID_3_" points="60.5,46.6 54.5,46.6 54.5,20.5 60.5,16.6 		"/>
	</defs>
	<clipPath id="SVGID_4_">
		<use xlink:href="#SVGID_3_"  style="overflow:visible;"/>
	</clipPath>
	<rect x="49.5" y="11.6" class="st1" width="16" height="40"/>
</g>
<g>
	<defs>
		<polygon id="SVGID_5_" points="71.5,45.6 65.5,45.6 65.5,13.1 71.5,8.6 		"/>
	</defs>
	<clipPath id="SVGID_6_">
		<use xlink:href="#SVGID_5_"  style="overflow:visible;"/>
	</clipPath>
	<rect x="60.5" y="3.6" class="st2" width="16" height="47"/>
</g>
<g>
	<defs>
		<polygon id="SVGID_7_" points="91.6,46 75.4,46 75.4,4.6 81.1,0 81.1,40.8 91.6,40.8 		"/>
	</defs>
	<clipPath id="SVGID_8_">
		<use xlink:href="#SVGID_7_"  style="overflow:visible;"/>
	</clipPath>
	<rect x="70.4" y="-5" class="st3" width="26.1" height="56"/>
</g>
<g>
	<defs>
		<path id="SVGID_9_" d="M71.2,58c0,1.7-0.5,3-1.5,4c-1,1-2.3,1.5-4,1.5c-2,0-3.6-0.7-4.8-2c-0.9-1-1.4-2.2-1.4-3.6
			c0-1,0.3-2,0.8-2.8c0.5-0.9,1.2-1.6,2.1-2.1c0.9-0.5,1.9-0.7,3.1-0.7c1.8,0,3.5,0.7,5,2.1L69.7,55c-1.2-1.2-2.6-1.8-4.1-1.8
			c-0.9,0-1.7,0.2-2.4,0.6c-0.8,0.4-1.4,1-1.8,1.7c-0.4,0.7-0.6,1.5-0.6,2.2c0,0.8,0.2,1.6,0.7,2.3s1,1.3,1.8,1.7
			c0.8,0.4,1.6,0.6,2.5,0.6c1.1,0,2-0.3,2.8-0.9c0.8-0.6,1.3-1.4,1.4-2.5h-3.5v-1H71.2z M58,63.2h-0.2L50.6,55v8.1h-1.1V52.4h0.2
			l7.2,8.2v-8.2H58V63.2z M47.5,63.2h-1.1V52.4h1.1V63.2z M45.5,63.2h-1.4l-4.8-5v5h-1.1V52.4h1.1v4l4.3-4h1.5l-5.2,4.8L45.5,63.2z
			 M36.6,61.3c-1.1,1.4-2.7,2.1-4.7,2.1c-1.9,0-3.4-0.6-4.5-1.9c-0.9-1.1-1.4-2.3-1.4-3.8c0-1.6,0.6-3,1.7-4c1.1-1,2.5-1.6,4.1-1.6
			c2.1,0,3.7,0.8,4.8,2.3l-0.9,0.7c-1-1.2-2.3-1.9-3.9-1.9c-0.8,0-1.6,0.2-2.4,0.6c-0.8,0.4-1.3,1-1.7,1.7s-0.6,1.5-0.6,2.4
			c0,1.3,0.5,2.4,1.4,3.3c0.9,0.9,2,1.3,3.4,1.3c1.5,0,2.8-0.6,3.8-1.8L36.6,61.3z M22,58.6l-1.8-3.9l-1.9,3.9H22z M25.4,63.2h-1.2
			l-1.7-3.5h-4.7l-1.7,3.5h-1.2L20,52.4h0.3L25.4,63.2z M13,55.3c0-0.4-0.1-0.7-0.3-1c-0.2-0.3-0.5-0.5-0.8-0.6
			c-0.3-0.1-0.9-0.2-1.6-0.2H8.4v3.7l1.9,0c1.2,0,2-0.3,2.4-0.9C12.9,56,13,55.6,13,55.3z M14.3,63.2h-1.3l-3.9-5H8.4v5H7.3V52.4
			h2.2c1.2,0,2,0,2.5,0.1c0.7,0.2,1.2,0.5,1.6,1c0.4,0.5,0.6,1.1,0.6,1.8c0,1.2-0.5,2.1-1.6,2.5c-0.5,0.2-1.2,0.3-2.1,0.4L14.3,63.2
			z M6.3,53.5H3.9v9.7H2.7v-9.7H0.3v-1h6V53.5z"/>
	</defs>
	<clipPath id="SVGID_10_">
		<use xlink:href="#SVGID_9_"  style="overflow:visible;"/>
	</clipPath>
	<rect x="-4.7" y="47.1" class="st4" width="80.8" height="21.3"/>
</g>
</svg>
